<?xml version="1.0" encoding="UTF-8"?>
<svg id="bubbleParty" data-name="Lager 2" xmlns="http://www.w3.org/2000/svg" viewBox="0 0 379.03 46.73">
  <defs>
    <style>
      .cls-1 {
        fill: #f0abcc;
        stroke-width: 0px;
      }
    </style>
  </defs>
  <g id="layer1" data-name="bubble-party">
    <g>
      <path class="cls-1" d="M20.19,18.87c7.01-.94,12.25,3.6,12.25,12.53,0,7.92-4.01,13.61-13.41,13.61C.69,45,0,26.35,0,16.71,0,5.18,5.62,0,13.94,0c6.39,0,12.87,5.4,12.87,10.87s-3.77,6.91-6.7,7.78l.08.22ZM11.02,15.63c-.15,0-.23.14-.23.5,0,.86,1.39,1.8,3.08,2.09-2-.65-2.47-2.59-2.85-2.59ZM13.02,22.97c-.15,0-.23.22-.23.58,0,1.22,1.93,2.52,4.31,2.81-2.85-.79-3.47-3.38-4.08-3.38ZM17.33,16.27c0-1.01-1.39-2.45-2.77-2.45-.92,0-1.69.65-1.69,1.37,0,1.08,1.08,2.3,2.7,2.3,1.31,0,1.77-.58,1.77-1.22ZM21.11,5.26c0-1.37-3.24-2.95-7.32-3.31,4.85,1.08,5.78,4.03,6.93,4.03.23,0,.39-.29.39-.72ZM19.34,23.62c0-1.01-1.46-2.45-2.85-2.45-.92,0-1.69.65-1.69,1.37,0,1.08,1.16,2.3,2.7,2.3,1.31,0,1.85-.58,1.85-1.22ZM27.66,25.13c.23,0,.38-.36.38-.79,0-1.66-2.93-3.6-6.78-4.03,4.47,1.22,5.39,4.82,6.39,4.82Z"/>
      <path class="cls-1" d="M46.84,12.53c-.62-6.98,1.54-9.65,5.32-9.65,8.78,0,14.33,10.51,14.33,25.35,0,13.47-7.4,16.85-13.33,16.85-14.18,0-20.72-11.81-20.72-26.28,0-9.58,2.39-16.92,7.32-16.92,6.78,0,5.7,5.9,6.78,10.66h.31ZM43.76,6.55c0-1.15-1.93-2.45-4.7-2.74,3.16.79,3.7,3.31,4.47,3.31.08,0,.23-.22.23-.58ZM59.63,10.23c0-2.16-3.16-4.68-7.4-5.33,5.01,1.66,5.78,6.41,6.93,6.41.23,0,.46-.43.46-1.08Z"/>
      <path class="cls-1" d="M87.29,18.87c7.01-.94,12.25,3.6,12.25,12.53,0,7.92-4.01,13.61-13.41,13.61-18.34,0-19.03-18.65-19.03-28.3,0-11.52,5.62-16.71,13.94-16.71,6.39,0,12.87,5.4,12.87,10.87s-3.77,6.91-6.7,7.78l.08.22ZM78.12,15.63c-.15,0-.23.14-.23.5,0,.86,1.39,1.8,3.08,2.09-2-.65-2.47-2.59-2.85-2.59ZM80.12,22.97c-.15,0-.23.22-.23.58,0,1.22,1.93,2.52,4.31,2.81-2.85-.79-3.47-3.38-4.08-3.38ZM84.44,16.27c0-1.01-1.39-2.45-2.77-2.45-.92,0-1.69.65-1.69,1.37,0,1.08,1.08,2.3,2.7,2.3,1.31,0,1.77-.58,1.77-1.22ZM88.21,5.26c0-1.37-3.24-2.95-7.32-3.31,4.85,1.08,5.78,4.03,6.93,4.03.23,0,.39-.29.39-.72ZM86.44,23.62c0-1.01-1.46-2.45-2.85-2.45-.92,0-1.69.65-1.69,1.37,0,1.08,1.16,2.3,2.7,2.3,1.31,0,1.85-.58,1.85-1.22ZM94.76,25.13c.23,0,.38-.36.38-.79,0-1.66-2.93-3.6-6.78-4.03,4.47,1.22,5.39,4.82,6.39,4.82Z"/>
      <path class="cls-1" d="M119.72,18.87c7.01-.94,12.25,3.6,12.25,12.53,0,7.92-4.01,13.61-13.41,13.61-18.34,0-19.03-18.65-19.03-28.3,0-11.52,5.62-16.71,13.94-16.71,6.39,0,12.87,5.4,12.87,10.87s-3.77,6.91-6.7,7.78l.08.22ZM110.55,15.63c-.15,0-.23.14-.23.5,0,.86,1.39,1.8,3.08,2.09-2-.65-2.47-2.59-2.85-2.59ZM112.55,22.97c-.15,0-.23.22-.23.58,0,1.22,1.93,2.52,4.31,2.81-2.85-.79-3.47-3.38-4.08-3.38ZM116.87,16.27c0-1.01-1.39-2.45-2.77-2.45-.92,0-1.69.65-1.69,1.37,0,1.08,1.08,2.3,2.7,2.3,1.31,0,1.77-.58,1.77-1.22ZM120.64,5.26c0-1.37-3.24-2.95-7.32-3.31,4.85,1.08,5.78,4.03,6.93,4.03.23,0,.39-.29.39-.72ZM118.87,23.62c0-1.01-1.46-2.45-2.85-2.45-.92,0-1.69.65-1.69,1.37,0,1.08,1.16,2.3,2.7,2.3,1.31,0,1.85-.58,1.85-1.22ZM127.19,25.13c.23,0,.38-.36.38-.79,0-1.66-2.93-3.6-6.78-4.03,4.47,1.22,5.39,4.82,6.39,4.82Z"/>
      <path class="cls-1" d="M131.66,17.14c0-5.11,2-15.27,10.48-15.27,12.02,0,14.71,12.6,14.71,21.6,0,3.38-.69,6.77-.69,6.77,1.7-.94,7.63-.86,7.63,4.68,0,5.98-6.24,11.81-13.56,11.81-15.56,0-18.57-17.64-18.57-29.59ZM150.46,9c0-2.38-3.47-4.97-8.17-5.62,5.55,1.73,6.47,6.77,7.7,6.77.23,0,.46-.5.46-1.15ZM160.24,32.98c.23-.14.15-.36-.08-.72-.62-.94-3-1.22-5.24-.43,3-.58,4.78,1.37,5.32,1.15Z"/>
      <path class="cls-1" d="M186.67,30.75c3.39-.79,8.78-.14,8.63,5.69,0,6.34-13.1,8.64-16.41,8.64-13.79,0-16.41-21.89-16.26-31.68.08-9.22,5.32-11.16,13.79-11.16,6.7,0,13.64,1.22,13.64,5.47,0,4.75-4.39,4.97-7.78,5.54v.29c7.78-.36,12.4,2.74,12.33,8.57-.08,3.38-2.31,6.34-7.94,7.85v.79ZM186.05,6.41c0-.94-2.39-2.02-5.39-2.23,3.47.72,4.24,2.74,5.08,2.74.15,0,.31-.22.31-.5ZM188.98,18.51c0-1.37-3-2.95-6.78-3.31,4.39,1.01,5.39,4.03,6.39,4.03.23,0,.39-.29.39-.72ZM191.67,35.14c.15,0,.31-.22.31-.5,0-1.01-2.31-2.02-5.39-2.23,3.47.72,4.31,2.74,5.08,2.74Z"/>
      <path class="cls-1" d="M213.32,18.65c0-11.38,5.55-16.35,16.1-16.35,7.63,0,13.48,5.62,13.48,14.33,0,7.78-2.77,13.68-10.25,14.47,1.46,2.52,2.16,5.11,2.16,7.78,0,4.32-3,6.34-6.47,6.34-10.09,0-15.02-15.55-15.02-26.57ZM224.95,25.27c-.15,0-.23.36-.23.72,0,1.37,1.93,2.88,4.47,3.31-3-1.01-3.54-4.03-4.24-4.03ZM231.5,25.63c0-1.01-1.46-2.45-2.77-2.45-.85,0-1.69.43-1.69,1.37,0,1.08,1.08,2.3,2.62,2.3,1.31,0,1.85-.58,1.85-1.22ZM238.28,9.79c0-2.3-3.47-4.97-8.17-5.54,5.55,1.73,6.47,6.7,7.7,6.7.23,0,.46-.43.46-1.15Z"/>
      <path class="cls-1" d="M259.47,35.5c.15,3.17,1.08,8.42-4.16,8.93-11.79,0-12.33-16.71-11.63-27.29.46-7.78,3.62-14.98,12.63-14.98,17.49,0,22.11,17.07,21.26,30.31-.23,4.97-2.93,13.03-9.78,13.03-5.08,0-7.01-6.7-7.7-10.08l-.62.07ZM255.15,28.51c-.31,0-.38.29-.38.72-.08,1.22,1.85,2.59,4.47,2.95-3.08-.86-3.47-3.67-4.08-3.67ZM258.16,26.71c-.77.22-1.23.65-1.23,1.3-.08,1.01,1,2.16,2.54,2.16,1.23,0,1.69-.5,1.77-1.15,0-.94-1.31-2.3-2.62-2.3h-.46ZM267.4,8.35c.15-1.73-3.85-3.67-9.01-4.03,6.01,1.22,7.17,4.9,8.55,4.9.23,0,.39-.36.46-.86Z"/>
      <path class="cls-1" d="M295.67,30.46c.15,1.58.38,3.31.38,4.9,0,3.46-1.16,9.15-5.24,9.15-11.17,0-13.02-15.7-13.02-22.9,0-8.86,1.85-19.15,15.02-19.15s18.64,4.54,18.64,12.82c0,5.4-3.7,7.7-7.09,9.14v.36c5.39.65,9.86,6.19,9.86,12.02,0,5.11-3.47,7.2-7.47,7.2-7.4,0-8.94-7.99-10.71-13.54h-.38ZM304.38,7.99c0-1.58-5.24-3.46-12.17-3.89,8.17,1.22,9.55,4.68,11.48,4.68.38,0,.69-.29.69-.79ZM293.29,21.67c-.23,0-.31.29-.31.72,0,1.3,2.16,2.88,4.93,3.24-3.31-1.01-3.93-3.96-4.62-3.96ZM300.07,22.03c0-1.08-1.46-2.45-2.85-2.45-.77,0-1.7.43-1.7,1.3,0,1.15,1.16,2.38,2.7,2.38,1.31,0,1.85-.65,1.85-1.22ZM308.15,30.46c.23,0,.31-.29.31-.65,0-1.44-2.39-2.95-5.7-3.31,3.93.94,4.55,3.96,5.39,3.96Z"/>
      <path class="cls-1" d="M319.32,27.58c0-7.63,2.62-10.44,3.16-11.52-.54.14-2.31.58-3,.58-5.16,0-8.09-2.38-8.09-6.48,0-6.34,8.32-9.07,16.26-9.07,5.08,0,19.34,1.44,19.34,10.08,0,4.68-6.7,6.77-10.25,5.26,2.23,2.09,7.09,10.87,7.09,17.86,0,5.69-3.93,10.66-11.25,10.66-13.17,0-13.25-13.97-13.25-17.35ZM341.28,7.99c0-1.87-5.16-3.96-12.02-4.46,8.09,1.3,9.48,5.4,11.4,5.4.38,0,.62-.43.62-.94Z"/>
      <path class="cls-1" d="M349.52,36.72c0-7.42,4.01-11.16,8.4-14.19-9.01-.79-12.87-7.06-12.87-12.46s3-7.2,7.01-7.2c7.7,0,10.94,4.46,12.4,10.44-1-6.77,1.16-12.1,7.7-12.1,4.62,0,6.86,3.82,6.86,7.85,0,14.91-5.01,35.79-19.41,35.79-7.7,0-10.09-4.61-10.09-8.14ZM358.92,8.57c0-1.66-2.85-3.46-6.78-3.96,4.7,1.15,5.39,4.75,6.39,4.75.23,0,.39-.36.39-.79ZM375.8,7.56c0-1.44-2-3.17-4.55-3.67,3.08,1.15,3.62,4.39,4.24,4.39.15,0,.31-.29.31-.72Z"/>
    </g>
  </g>
</svg>